<?xml version="1.0" standalone="no"?>
<!DOCTYPE svg PUBLIC "-//W3C//DTD SVG 20010904//EN"
 "http://www.w3.org/TR/2001/REC-SVG-20010904/DTD/svg10.dtd">
<svg version="1.0" xmlns="http://www.w3.org/2000/svg"
 width="24.000000pt" height="24.000000pt" viewBox="0 0 24.000000 24.000000"
 preserveAspectRatio="xMidYMid meet">

<g transform="translate(0.000000,24.000000) scale(0.100000,-0.100000)"
fill="#000000" stroke="none">
<path d="M16 164 c-18 -25 -18 -26 3 -55 25 -33 26 -43 7 -58 -8 -6 -16 -21
-19 -31 -4 -17 0 -20 31 -20 32 0 39 5 53 33 15 29 14 34 -4 64 -18 31 -18 35
-3 58 21 32 51 32 72 0 15 -23 15 -27 -3 -58 -18 -30 -19 -35 -4 -64 14 -28
21 -33 53 -33 31 0 36 3 31 18 -3 9 -13 25 -21 34 -13 15 -12 20 7 44 26 32
26 42 2 72 -17 20 -28 22 -103 22 -77 -1 -84 -2 -102 -26z"/>
<path d="M100 155 c-12 -15 -8 -48 10 -75 9 -13 11 -13 20 0 18 27 22 60 10
75 -7 8 -16 15 -20 15 -4 0 -13 -7 -20 -15z"/>
<path d="M102 40 c-17 -28 -16 -30 18 -30 33 0 36 6 16 33 -17 21 -18 21 -34
-3z"/>
</g>
</svg>
